<svg aria-roledescription="class" role="graphics-document document" viewBox="0 0 654.7412109375 801.5" style="max-width: 654.7412109375px;" class="classDiagram" xmlns="http://www.w3.org/2000/svg" width="100%" id="mermaidSvgId"><style>#mermaidSvgId{font-family:"trebuchet ms",verdana,arial,sans-serif;font-size:16px;fill:#000000;}#mermaidSvgId .error-icon{fill:#552222;}#mermaidSvgId .error-text{fill:#552222;stroke:#552222;}#mermaidSvgId .edge-thickness-normal{stroke-width:1px;}#mermaidSvgId .edge-thickness-thick{stroke-width:3.5px;}#mermaidSvgId .edge-pattern-solid{stroke-dasharray:0;}#mermaidSvgId .edge-thickness-invisible{stroke-width:0;fill:none;}#mermaidSvgId .edge-pattern-dashed{stroke-dasharray:3;}#mermaidSvgId .edge-pattern-dotted{stroke-dasharray:2;}#mermaidSvgId .marker{fill:#666;stroke:#666;}#mermaidSvgId .marker.cross{stroke:#666;}#mermaidSvgId svg{font-family:"trebuchet ms",verdana,arial,sans-serif;font-size:16px;}#mermaidSvgId p{margin:0;}#mermaidSvgId g.classGroup text{fill:#999;stroke:none;font-family:"trebuchet ms",verdana,arial,sans-serif;font-size:10px;}#mermaidSvgId g.classGroup text .title{font-weight:bolder;}#mermaidSvgId .nodeLabel,#mermaidSvgId .edgeLabel{color:#111111;}#mermaidSvgId .edgeLabel .label rect{fill:#eee;}#mermaidSvgId .label text{fill:#111111;}#mermaidSvgId .labelBkg{background:#eee;}#mermaidSvgId .edgeLabel .label span{background:#eee;}#mermaidSvgId .classTitle{font-weight:bolder;}#mermaidSvgId .node rect,#mermaidSvgId .node circle,#mermaidSvgId .node ellipse,#mermaidSvgId .node polygon,#mermaidSvgId .node path{fill:#eee;stroke:#999;stroke-width:1px;}#mermaidSvgId .divider{stroke:#999;stroke-width:1;}#mermaidSvgId g.clickable{cursor:pointer;}#mermaidSvgId g.classGroup rect{fill:#eee;stroke:#999;}#mermaidSvgId g.classGroup line{stroke:#999;stroke-width:1;}#mermaidSvgId .classLabel .box{stroke:none;stroke-width:0;fill:#eee;opacity:0.5;}#mermaidSvgId .classLabel .label{fill:#999;font-size:10px;}#mermaidSvgId .relation{stroke:#666;stroke-width:1;fill:none;}#mermaidSvgId .dashed-line{stroke-dasharray:3;}#mermaidSvgId .dotted-line{stroke-dasharray:1 2;}#mermaidSvgId #compositionStart,#mermaidSvgId .composition{fill:#666!important;stroke:#666!important;stroke-width:1;}#mermaidSvgId #compositionEnd,#mermaidSvgId .composition{fill:#666!important;stroke:#666!important;stroke-width:1;}#mermaidSvgId #dependencyStart,#mermaidSvgId .dependency{fill:#666!important;stroke:#666!important;stroke-width:1;}#mermaidSvgId #dependencyStart,#mermaidSvgId .dependency{fill:#666!important;stroke:#666!important;stroke-width:1;}#mermaidSvgId #extensionStart,#mermaidSvgId .extension{fill:transparent!important;stroke:#666!important;stroke-width:1;}#mermaidSvgId #extensionEnd,#mermaidSvgId .extension{fill:transparent!important;stroke:#666!important;stroke-width:1;}#mermaidSvgId #aggregationStart,#mermaidSvgId .aggregation{fill:transparent!important;stroke:#666!important;stroke-width:1;}#mermaidSvgId #aggregationEnd,#mermaidSvgId .aggregation{fill:transparent!important;stroke:#666!important;stroke-width:1;}#mermaidSvgId #lollipopStart,#mermaidSvgId .lollipop{fill:#eee!important;stroke:#666!important;stroke-width:1;}#mermaidSvgId #lollipopEnd,#mermaidSvgId .lollipop{fill:#eee!important;stroke:#666!important;stroke-width:1;}#mermaidSvgId .edgeTerminals{font-size:11px;line-height:initial;}#mermaidSvgId .classTitleText{text-anchor:middle;font-size:18px;fill:#000000;}#mermaidSvgId :root{--mermaid-font-family:"trebuchet ms",verdana,arial,sans-serif;}</style><g><defs><marker orient="auto" markerHeight="240" markerWidth="190" refY="7" refX="18" class="marker aggregation class" id="mermaidSvgId_class-aggregationStart"><path d="M 18,7 L9,13 L1,7 L9,1 Z"></path></marker></defs><defs><marker orient="auto" markerHeight="28" markerWidth="20" refY="7" refX="1" class="marker aggregation class" id="mermaidSvgId_class-aggregationEnd"><path d="M 18,7 L9,13 L1,7 L9,1 Z"></path></marker></defs><defs><marker orient="auto" markerHeight="240" markerWidth="190" refY="7" refX="18" class="marker extension class" id="mermaidSvgId_class-extensionStart"><path d="M 1,7 L18,13 V 1 Z"></path></marker></defs><defs><marker orient="auto" markerHeight="28" markerWidth="20" refY="7" refX="1" class="marker extension class" id="mermaidSvgId_class-extensionEnd"><path d="M 1,1 V 13 L18,7 Z"></path></marker></defs><defs><marker orient="auto" markerHeight="240" markerWidth="190" refY="7" refX="18" class="marker composition class" id="mermaidSvgId_class-compositionStart"><path d="M 18,7 L9,13 L1,7 L9,1 Z"></path></marker></defs><defs><marker orient="auto" markerHeight="28" markerWidth="20" refY="7" refX="1" class="marker composition class" id="mermaidSvgId_class-compositionEnd"><path d="M 18,7 L9,13 L1,7 L9,1 Z"></path></marker></defs><defs><marker orient="auto" markerHeight="240" markerWidth="190" refY="7" refX="6" class="marker dependency class" id="mermaidSvgId_class-dependencyStart"><path d="M 5,7 L9,13 L1,7 L9,1 Z"></path></marker></defs><defs><marker orient="auto" markerHeight="28" markerWidth="20" refY="7" refX="13" class="marker dependency class" id="mermaidSvgId_class-dependencyEnd"><path d="M 18,7 L9,13 L14,7 L9,1 Z"></path></marker></defs><defs><marker orient="auto" markerHeight="240" markerWidth="190" refY="7" refX="13" class="marker lollipop class" id="mermaidSvgId_class-lollipopStart"><circle r="6" cy="7" cx="7" fill="transparent" stroke="black"></circle></marker></defs><defs><marker orient="auto" markerHeight="240" markerWidth="190" refY="7" refX="1" class="marker lollipop class" id="mermaidSvgId_class-lollipopEnd"><circle r="6" cy="7" cx="7" fill="transparent" stroke="black"></circle></marker></defs><g class="root"><g class="clusters"></g><g class="edgePaths"><path marker-start="url(#mermaidSvgId_class-extensionStart)" style=";" class="edge-thickness-normal edge-pattern-solid relation" id="id_Task_Bug_1" d="M180.335,477.903L163.827,492.461C147.319,507.019,114.303,536.134,97.795,562.109C81.287,588.083,81.287,610.917,81.287,622.333L81.287,633.75"></path><path marker-start="url(#mermaidSvgId_class-extensionStart)" style=";" class="edge-thickness-normal edge-pattern-solid relation" id="id_Task_Feature_2" d="M294.358,546.925L294.637,549.979C294.916,553.034,295.475,559.142,295.754,573.613C296.033,588.083,296.033,610.917,296.033,622.333L296.033,633.75"></path><path marker-end="url(#mermaidSvgId_class-dependencyEnd)" style=";" class="edge-thickness-normal edge-pattern-solid relation" id="id_TaskManager_Task_3" d="M322.303,178.5L315.255,184.542C308.207,190.583,294.11,202.667,287.061,213.75C280.013,224.833,280.013,234.917,280.013,239.958L280.013,245"></path><path marker-end="url(#mermaidSvgId_class-dependencyEnd)" style=";" class="edge-thickness-normal edge-pattern-solid relation" id="id_Task_User_4" d="M366.19,454.148L391.066,472.665C415.942,491.182,465.694,528.216,490.569,551.775C515.445,575.333,515.445,585.417,515.445,590.458L515.445,595.5"></path><path marker-end="url(#mermaidSvgId_class-dependencyEnd)" style=";" class="edge-thickness-normal edge-pattern-dashed relation" id="id_TaskManager_Database_5" d="M498.735,178.5L504.19,184.542C509.645,190.583,520.555,202.667,526.011,224.5C531.466,246.333,531.466,277.917,531.466,293.708L531.466,309.5"></path></g><g class="edgeLabels"><g transform="translate(81.287109375, 565.25)" class="edgeLabel"><g transform="translate(-29.97265625, -11.25)" class="label"><g><rect height="22.5" width="59.9453125" y="-1" x="-2" style=";display: inline-block" class="background"></rect><text style=";display: inline-block" y="-10.1"><tspan dy="1.1em" y="-0.1em" x="0" class="text-outer-tspan"><tspan font-weight="normal" class="text-inner-tspan" font-style="normal">extends</tspan></tspan></text></g></g></g><g transform="translate(296.033203125, 565.25)" class="edgeLabel"><g transform="translate(-29.97265625, -11.25)" class="label"><g><rect height="22.5" width="59.9453125" y="-1" x="-2" style=";display: inline-block" class="background"></rect><text style=";display: inline-block" y="-10.1"><tspan dy="1.1em" y="-0.1em" x="0" class="text-outer-tspan"><tspan font-weight="normal" class="text-inner-tspan" font-style="normal">extends</tspan></tspan></text></g></g></g><g transform="translate(280.0126953125, 214.75)" class="edgeLabel"><g transform="translate(-33.03515625, -11.25)" class="label"><g><rect height="22.5" width="66.0703125" y="-1" x="-2" style=";display: inline-block" class="background"></rect><text style=";display: inline-block" y="-10.1"><tspan dy="1.1em" y="-0.1em" x="0" class="text-outer-tspan"><tspan font-weight="normal" class="text-inner-tspan" font-style="normal">manages</tspan></tspan></text></g></g></g><g transform="translate(515.4453125, 565.25)" class="edgeLabel"><g transform="translate(-42.04296875, -11.25)" class="label"><g><rect height="22.5" width="84.0859375" y="-1" x="-2" style=";display: inline-block" class="background"></rect><text style=";display: inline-block" y="-10.1"><tspan dy="1.1em" y="-0.1em" x="0" class="text-outer-tspan"><tspan font-weight="normal" class="text-inner-tspan" font-style="normal">assigned</tspan><tspan font-weight="normal" class="text-inner-tspan" font-style="normal"> to</tspan></tspan></text></g></g></g><g transform="translate(531.4658203125, 214.75)" class="edgeLabel"><g transform="translate(-42.78125, -11.25)" class="label"><g><rect height="22.5" width="85.5625" y="-1" x="-2" style=";display: inline-block" class="background"></rect><text style=";display: inline-block" y="-10.1"><tspan dy="1.1em" y="-0.1em" x="0" class="text-outer-tspan"><tspan font-weight="normal" class="text-inner-tspan" font-style="normal">depends</tspan><tspan font-weight="normal" class="text-inner-tspan" font-style="normal"> on</tspan></tspan></text></g></g></g></g><g class="nodes"><g transform="translate(280.0126953125, 390)" id="classId-Task-272" class="node default"><g class="basic label-container"><path style="" fill="#eee" stroke-width="0" stroke="none" d="M-86.177734375 -139 L86.177734375 -139 L86.177734375 139 L-86.177734375 139"></path><path style="" fill="none" stroke-width="1.3" stroke="#999" d="M-86.177734375 -139 C-19.10452074895757 -139, 47.96869287708486 -139, 86.177734375 -139 M-86.177734375 -139 C-39.37018543955958 -139, 7.437363495880845 -139, 86.177734375 -139 M86.177734375 -139 C86.177734375 -67.20700371255097, 86.177734375 4.585992574898057, 86.177734375 139 M86.177734375 -139 C86.177734375 -75.66166273335591, 86.177734375 -12.323325466711808, 86.177734375 139 M86.177734375 139 C48.42668931009802 139, 10.67564424519604 139, -86.177734375 139 M86.177734375 139 C21.43667976756113 139, -43.30437483987774 139, -86.177734375 139 M-86.177734375 139 C-86.177734375 72.09119016434376, -86.177734375 5.182380328687515, -86.177734375 -139 M-86.177734375 139 C-86.177734375 51.05463473387999, -86.177734375 -36.89073053224001, -86.177734375 -139"></path></g><g transform="translate(0, -119)" class="annotation-group text"></g><g transform="translate(-16.09765625, -119)" class="label-group text"><g transform="translate(0,-9.25)" style="font-weight: bolder" class="label"><g><rect style="stroke: none" class="background"></rect><text style="" y="-10.1"><tspan font-weight="" dy="1.1em" y="-0.1em" x="0" class="text-outer-tspan"><tspan font-weight="" class="text-inner-tspan" font-style="normal">Task</tspan></tspan></text></g></g></g><g transform="translate(-74.177734375, -76.5)" class="members-group text"><g transform="translate(0,-9.25)" style="" class="label"><g><rect style="stroke: none" class="background"></rect><text style="" y="-10.1"><tspan dy="1.1em" y="-0.1em" x="0" class="text-outer-tspan"><tspan font-weight="normal" class="text-inner-tspan" font-style="normal">-int</tspan><tspan font-weight="normal" class="text-inner-tspan" font-style="normal"> id</tspan></tspan></text></g></g><g transform="translate(0,12.25)" style="" class="label"><g><rect style="stroke: none" class="background"></rect><text style="" y="-10.1"><tspan dy="1.1em" y="-0.1em" x="0" class="text-outer-tspan"><tspan font-weight="normal" class="text-inner-tspan" font-style="normal">-String</tspan><tspan font-weight="normal" class="text-inner-tspan" font-style="normal"> title</tspan></tspan></text></g></g><g transform="translate(0,33.75)" style="" class="label"><g><rect style="stroke: none" class="background"></rect><text style="" y="-10.1"><tspan dy="1.1em" y="-0.1em" x="0" class="text-outer-tspan"><tspan font-weight="normal" class="text-inner-tspan" font-style="normal">-String</tspan><tspan font-weight="normal" class="text-inner-tspan" font-style="normal"> description</tspan></tspan></text></g></g><g transform="translate(0,55.25)" style="" class="label"><g><rect style="stroke: none" class="background"></rect><text style="" y="-10.1"><tspan dy="1.1em" y="-0.1em" x="0" class="text-outer-tspan"><tspan font-weight="normal" class="text-inner-tspan" font-style="normal">-String</tspan><tspan font-weight="normal" class="text-inner-tspan" font-style="normal"> type</tspan></tspan></text></g></g><g transform="translate(0,76.75)" style="" class="label"><g><rect style="stroke: none" class="background"></rect><text style="" y="-10.1"><tspan dy="1.1em" y="-0.1em" x="0" class="text-outer-tspan"><tspan font-weight="normal" class="text-inner-tspan" font-style="normal">-String</tspan><tspan font-weight="normal" class="text-inner-tspan" font-style="normal"> status</tspan></tspan></text></g></g><g transform="translate(0,98.25)" style="" class="label"><g><rect style="stroke: none" class="background"></rect><text style="" y="-10.1"><tspan dy="1.1em" y="-0.1em" x="0" class="text-outer-tspan"><tspan font-weight="normal" class="text-inner-tspan" font-style="normal">-User</tspan><tspan font-weight="normal" class="text-inner-tspan" font-style="normal"> assignee</tspan></tspan></text></g></g></g><g transform="translate(-74.177734375, 73.5)" class="methods-group text"><g transform="translate(0,-9.25)" style="" class="label"><g><rect style="stroke: none" class="background"></rect><text style="" y="-10.1"><tspan dy="1.1em" y="-0.1em" x="0" class="text-outer-tspan"><tspan font-weight="normal" class="text-inner-tspan" font-style="normal">+createTask()</tspan></tspan></text></g></g><g transform="translate(0,12.25)" style="" class="label"><g><rect style="stroke: none" class="background"></rect><text style="" y="-10.1"><tspan dy="1.1em" y="-0.1em" x="0" class="text-outer-tspan"><tspan font-weight="normal" class="text-inner-tspan" font-style="normal">+updateTask()</tspan></tspan></text></g></g><g transform="translate(0,33.75)" style="" class="label"><g><rect style="stroke: none" class="background"></rect><text style="" y="-10.1"><tspan dy="1.1em" y="-0.1em" x="0" class="text-outer-tspan"><tspan font-weight="normal" class="text-inner-tspan" font-style="normal">+loadTask()</tspan></tspan></text></g></g></g><g style="" class="divider"><path style="" fill="none" stroke-width="1.3" stroke="#999" d="M-86.177734375 -96.5 C-46.449524180972475 -96.5, -6.721313986944949 -96.5, 86.177734375 -96.5 M-86.177734375 -96.5 C-24.639628799459096 -96.5, 36.89847677608181 -96.5, 86.177734375 -96.5"></path></g><g style="" class="divider"><path style="" fill="none" stroke-width="1.3" stroke="#999" d="M-86.177734375 53.5 C-25.412282000965554 53.5, 35.35317037306889 53.5, 86.177734375 53.5 M-86.177734375 53.5 C-49.0882923504026 53.5, -11.998850325805194 53.5, 86.177734375 53.5"></path></g></g><g transform="translate(81.287109375, 697.5)" id="classId-Bug-273" class="node default"><g class="basic label-container"><path style="" fill="#eee" stroke-width="0" stroke="none" d="M-73.287109375 -63.75 L73.287109375 -63.75 L73.287109375 63.75 L-73.287109375 63.75"></path><path style="" fill="none" stroke-width="1.3" stroke="#999" d="M-73.287109375 -63.75 C-25.25879901338555 -63.75, 22.769511348228903 -63.75, 73.287109375 -63.75 M-73.287109375 -63.75 C-33.100779432799406 -63.75, 7.0855505094011875 -63.75, 73.287109375 -63.75 M73.287109375 -63.75 C73.287109375 -26.95383639325629, 73.287109375 9.842327213487422, 73.287109375 63.75 M73.287109375 -63.75 C73.287109375 -35.05418663016016, 73.287109375 -6.358373260320313, 73.287109375 63.75 M73.287109375 63.75 C41.27644452756422 63.75, 9.265779680128446 63.75, -73.287109375 63.75 M73.287109375 63.75 C33.385752602489106 63.75, -6.515604170021788 63.75, -73.287109375 63.75 M-73.287109375 63.75 C-73.287109375 30.285705023652625, -73.287109375 -3.1785899526947503, -73.287109375 -63.75 M-73.287109375 63.75 C-73.287109375 32.62336632366272, -73.287109375 1.4967326473254516, -73.287109375 -63.75"></path></g><g transform="translate(0, -43.75)" class="annotation-group text"></g><g transform="translate(-13.50390625, -43.75)" class="label-group text"><g transform="translate(0,-9.25)" style="font-weight: bolder" class="label"><g><rect style="stroke: none" class="background"></rect><text style="" y="-10.1"><tspan font-weight="" dy="1.1em" y="-0.1em" x="0" class="text-outer-tspan"><tspan font-weight="" class="text-inner-tspan" font-style="normal">Bug</tspan></tspan></text></g></g></g><g transform="translate(-61.287109375, -1.25)" class="members-group text"><g transform="translate(0,-9.25)" style="" class="label"><g><rect style="stroke: none" class="background"></rect><text style="" y="-10.1"><tspan dy="1.1em" y="-0.1em" x="0" class="text-outer-tspan"><tspan font-weight="normal" class="text-inner-tspan" font-style="normal">-String</tspan><tspan font-weight="normal" class="text-inner-tspan" font-style="normal"> severity</tspan></tspan></text></g></g></g><g transform="translate(-61.287109375, 41.25)" class="methods-group text"><g transform="translate(0,-9.25)" style="" class="label"><g><rect style="stroke: none" class="background"></rect><text style="" y="-10.1"><tspan dy="1.1em" y="-0.1em" x="0" class="text-outer-tspan"><tspan font-weight="normal" class="text-inner-tspan" font-style="normal">+reportBug()</tspan></tspan></text></g></g></g><g style="" class="divider"><path style="" fill="none" stroke-width="1.3" stroke="#999" d="M-73.287109375 -21.25 C-28.737015711604315 -21.25, 15.81307795179137 -21.25, 73.287109375 -21.25 M-73.287109375 -21.25 C-25.49992142845884 -21.25, 22.28726651808232 -21.25, 73.287109375 -21.25"></path></g><g style="" class="divider"><path style="" fill="none" stroke-width="1.3" stroke="#999" d="M-73.287109375 21.25 C-43.91125979281156 21.25, -14.53541021062312 21.25, 73.287109375 21.25 M-73.287109375 21.25 C-15.797888698862238 21.25, 41.691331977275524 21.25, 73.287109375 21.25"></path></g></g><g transform="translate(296.033203125, 697.5)" id="classId-Feature-274" class="node default"><g class="basic label-container"><path style="" fill="#eee" stroke-width="0" stroke="none" d="M-91.458984375 -63.75 L91.458984375 -63.75 L91.458984375 63.75 L-91.458984375 63.75"></path><path style="" fill="none" stroke-width="1.3" stroke="#999" d="M-91.458984375 -63.75 C-28.42590431590149 -63.75, 34.60717574319702 -63.75, 91.458984375 -63.75 M-91.458984375 -63.75 C-19.21366078879673 -63.75, 53.03166279740654 -63.75, 91.458984375 -63.75 M91.458984375 -63.75 C91.458984375 -34.10709788385627, 91.458984375 -4.464195767712539, 91.458984375 63.75 M91.458984375 -63.75 C91.458984375 -33.57310396341215, 91.458984375 -3.396207926824296, 91.458984375 63.75 M91.458984375 63.75 C47.220083315991495 63.75, 2.98118225698299 63.75, -91.458984375 63.75 M91.458984375 63.75 C25.361109344165257 63.75, -40.736765686669486 63.75, -91.458984375 63.75 M-91.458984375 63.75 C-91.458984375 17.12208743161655, -91.458984375 -29.5058251367669, -91.458984375 -63.75 M-91.458984375 63.75 C-91.458984375 15.03263546383593, -91.458984375 -33.68472907232814, -91.458984375 -63.75"></path></g><g transform="translate(0, -43.75)" class="annotation-group text"></g><g transform="translate(-29.06640625, -43.75)" class="label-group text"><g transform="translate(0,-9.25)" style="font-weight: bolder" class="label"><g><rect style="stroke: none" class="background"></rect><text style="" y="-10.1"><tspan font-weight="" dy="1.1em" y="-0.1em" x="0" class="text-outer-tspan"><tspan font-weight="" class="text-inner-tspan" font-style="normal">Feature</tspan></tspan></text></g></g></g><g transform="translate(-79.458984375, -1.25)" class="members-group text"><g transform="translate(0,-9.25)" style="" class="label"><g><rect style="stroke: none" class="background"></rect><text style="" y="-10.1"><tspan dy="1.1em" y="-0.1em" x="0" class="text-outer-tspan"><tspan font-weight="normal" class="text-inner-tspan" font-style="normal">-String</tspan><tspan font-weight="normal" class="text-inner-tspan" font-style="normal"> priority</tspan></tspan></text></g></g></g><g transform="translate(-79.458984375, 41.25)" class="methods-group text"><g transform="translate(0,-9.25)" style="" class="label"><g><rect style="stroke: none" class="background"></rect><text style="" y="-10.1"><tspan dy="1.1em" y="-0.1em" x="0" class="text-outer-tspan"><tspan font-weight="normal" class="text-inner-tspan" font-style="normal">+requestFeature()</tspan></tspan></text></g></g></g><g style="" class="divider"><path style="" fill="none" stroke-width="1.3" stroke="#999" d="M-91.458984375 -21.25 C-28.083803010554533 -21.25, 35.291378353890934 -21.25, 91.458984375 -21.25 M-91.458984375 -21.25 C-39.818094013687684 -21.25, 11.822796347624632 -21.25, 91.458984375 -21.25"></path></g><g style="" class="divider"><path style="" fill="none" stroke-width="1.3" stroke="#999" d="M-91.458984375 21.25 C-53.954680210431874 21.25, -16.45037604586375 21.25, 91.458984375 21.25 M-91.458984375 21.25 C-47.151633211601045 21.25, -2.844282048202089 21.25, 91.458984375 21.25"></path></g></g><g transform="translate(515.4453125, 697.5)" id="classId-User-275" class="node default"><g class="basic label-container"><path style="" fill="#eee" stroke-width="0" stroke="none" d="M-77.953125 -96 L77.953125 -96 L77.953125 96 L-77.953125 96"></path><path style="" fill="none" stroke-width="1.3" stroke="#999" d="M-77.953125 -96 C-18.88568098377901 -96, 40.18176303244198 -96, 77.953125 -96 M-77.953125 -96 C-34.79194330513845 -96, 8.369238389723094 -96, 77.953125 -96 M77.953125 -96 C77.953125 -38.19179105261536, 77.953125 19.616417894769285, 77.953125 96 M77.953125 -96 C77.953125 -50.08562541715022, 77.953125 -4.171250834300437, 77.953125 96 M77.953125 96 C18.423847063558235 96, -41.10543087288353 96, -77.953125 96 M77.953125 96 C20.490721447122503 96, -36.971682105754994 96, -77.953125 96 M-77.953125 96 C-77.953125 51.9490755565616, -77.953125 7.898151113123205, -77.953125 -96 M-77.953125 96 C-77.953125 31.650808044883078, -77.953125 -32.698383910233844, -77.953125 -96"></path></g><g transform="translate(0, -76)" class="annotation-group text"></g><g transform="translate(-16.8828125, -76)" class="label-group text"><g transform="translate(0,-9.25)" style="font-weight: bolder" class="label"><g><rect style="stroke: none" class="background"></rect><text style="" y="-10.1"><tspan font-weight="" dy="1.1em" y="-0.1em" x="0" class="text-outer-tspan"><tspan font-weight="" class="text-inner-tspan" font-style="normal">User</tspan></tspan></text></g></g></g><g transform="translate(-65.953125, -33.5)" class="members-group text"><g transform="translate(0,-9.25)" style="" class="label"><g><rect style="stroke: none" class="background"></rect><text style="" y="-10.1"><tspan dy="1.1em" y="-0.1em" x="0" class="text-outer-tspan"><tspan font-weight="normal" class="text-inner-tspan" font-style="normal">-int</tspan><tspan font-weight="normal" class="text-inner-tspan" font-style="normal"> id</tspan></tspan></text></g></g><g transform="translate(0,12.25)" style="" class="label"><g><rect style="stroke: none" class="background"></rect><text style="" y="-10.1"><tspan dy="1.1em" y="-0.1em" x="0" class="text-outer-tspan"><tspan font-weight="normal" class="text-inner-tspan" font-style="normal">-String</tspan><tspan font-weight="normal" class="text-inner-tspan" font-style="normal"> name</tspan></tspan></text></g></g><g transform="translate(0,33.75)" style="" class="label"><g><rect style="stroke: none" class="background"></rect><text style="" y="-10.1"><tspan dy="1.1em" y="-0.1em" x="0" class="text-outer-tspan"><tspan font-weight="normal" class="text-inner-tspan" font-style="normal">-Date</tspan><tspan font-weight="normal" class="text-inner-tspan" font-style="normal"> createdAt</tspan></tspan></text></g></g></g><g transform="translate(-65.953125, 52)" class="methods-group text"><g transform="translate(0,-9.25)" style="" class="label"><g><rect style="stroke: none" class="background"></rect><text style="" y="-10.1"><tspan dy="1.1em" y="-0.1em" x="0" class="text-outer-tspan"><tspan font-weight="normal" class="text-inner-tspan" font-style="normal">+login()</tspan></tspan></text></g></g><g transform="translate(0,12.25)" style="" class="label"><g><rect style="stroke: none" class="background"></rect><text style="" y="-10.1"><tspan dy="1.1em" y="-0.1em" x="0" class="text-outer-tspan"><tspan font-weight="normal" class="text-inner-tspan" font-style="normal">+logout()</tspan></tspan></text></g></g></g><g style="" class="divider"><path style="" fill="none" stroke-width="1.3" stroke="#999" d="M-77.953125 -53.5 C-33.80198016375596 -53.5, 10.349164672488087 -53.5, 77.953125 -53.5 M-77.953125 -53.5 C-35.037502887684184 -53.5, 7.878119224631632 -53.5, 77.953125 -53.5"></path></g><g style="" class="divider"><path style="" fill="none" stroke-width="1.3" stroke="#999" d="M-77.953125 32 C-33.70079365320354 32, 10.55153769359292 32, 77.953125 32 M-77.953125 32 C-24.17483091511251 32, 29.603463169774983 32, 77.953125 32"></path></g></g><g transform="translate(421.759765625, 93.25)" id="classId-TaskManager-276" class="node default"><g class="basic label-container"><path style="" fill="#eee" stroke-width="0" stroke="none" d="M-100.53515625 -85.25 L100.53515625 -85.25 L100.53515625 85.25 L-100.53515625 85.25"></path><path style="" fill="none" stroke-width="1.3" stroke="#999" d="M-100.53515625 -85.25 C-31.011788367232157 -85.25, 38.511579515535686 -85.25, 100.53515625 -85.25 M-100.53515625 -85.25 C-49.67818341435781 -85.25, 1.1787894212843781 -85.25, 100.53515625 -85.25 M100.53515625 -85.25 C100.53515625 -35.739101576199076, 100.53515625 13.771796847601848, 100.53515625 85.25 M100.53515625 -85.25 C100.53515625 -22.22317652154055, 100.53515625 40.8036469569189, 100.53515625 85.25 M100.53515625 85.25 C40.85702629870274 85.25, -18.821103652594516 85.25, -100.53515625 85.25 M100.53515625 85.25 C31.106396276626043 85.25, -38.322363696747914 85.25, -100.53515625 85.25 M-100.53515625 85.25 C-100.53515625 49.43345788695675, -100.53515625 13.616915773913504, -100.53515625 -85.25 M-100.53515625 85.25 C-100.53515625 46.867946957178354, -100.53515625 8.485893914356708, -100.53515625 -85.25"></path></g><g transform="translate(0, -65.25)" class="annotation-group text"></g><g transform="translate(-47.3359375, -65.25)" class="label-group text"><g transform="translate(0,-9.25)" style="font-weight: bolder" class="label"><g><rect style="stroke: none" class="background"></rect><text style="" y="-10.1"><tspan font-weight="" dy="1.1em" y="-0.1em" x="0" class="text-outer-tspan"><tspan font-weight="" class="text-inner-tspan" font-style="normal">TaskManager</tspan></tspan></text></g></g></g><g transform="translate(-88.53515625, -22.75)" class="members-group text"><g transform="translate(0,-9.25)" style="" class="label"><g><rect style="stroke: none" class="background"></rect><text style="" y="-10.1"><tspan dy="1.1em" y="-0.1em" x="0" class="text-outer-tspan"><tspan font-weight="normal" class="text-inner-tspan" font-style="normal">-List</tspan><tspan font-weight="normal" class="text-inner-tspan" font-style="normal"> tasks</tspan></tspan></text></g></g></g><g transform="translate(-88.53515625, 19.75)" class="methods-group text"><g transform="translate(0,-9.25)" style="" class="label"><g><rect style="stroke: none" class="background"></rect><text style="" y="-10.1"><tspan dy="1.1em" y="-0.1em" x="0" class="text-outer-tspan"><tspan font-weight="normal" class="text-inner-tspan" font-style="normal">+createTask(task)</tspan></tspan></text></g></g><g transform="translate(0,12.25)" style="" class="label"><g><rect style="stroke: none" class="background"></rect><text style="" y="-10.1"><tspan dy="1.1em" y="-0.1em" x="0" class="text-outer-tspan"><tspan font-weight="normal" class="text-inner-tspan" font-style="normal">+loadTasks()</tspan></tspan></text></g></g><g transform="translate(0,33.75)" style="" class="label"><g><rect style="stroke: none" class="background"></rect><text style="" y="-10.1"><tspan dy="1.1em" y="-0.1em" x="0" class="text-outer-tspan"><tspan font-weight="normal" class="text-inner-tspan" font-style="normal">+updateTask(task)</tspan></tspan></text></g></g></g><g style="" class="divider"><path style="" fill="none" stroke-width="1.3" stroke="#999" d="M-100.53515625 -42.75 C-48.37367281261957 -42.75, 3.7878106247608656 -42.75, 100.53515625 -42.75 M-100.53515625 -42.75 C-26.50231577769854 -42.75, 47.53052469460292 -42.75, 100.53515625 -42.75"></path></g><g style="" class="divider"><path style="" fill="none" stroke-width="1.3" stroke="#999" d="M-100.53515625 -0.25 C-57.602973383985606 -0.25, -14.670790517971213 -0.25, 100.53515625 -0.25 M-100.53515625 -0.25 C-42.042022554477654 -0.25, 16.45111114104469 -0.25, 100.53515625 -0.25"></path></g></g><g transform="translate(531.4658203125, 390)" id="classId-Database-277" class="node default"><g class="basic label-container"><path style="" fill="#eee" stroke-width="0" stroke="none" d="M-115.275390625 -74.5 L115.275390625 -74.5 L115.275390625 74.5 L-115.275390625 74.5"></path><path style="" fill="none" stroke-width="1.3" stroke="#999" d="M-115.275390625 -74.5 C-30.82550364530985 -74.5, 53.6243833343803 -74.5, 115.275390625 -74.5 M-115.275390625 -74.5 C-32.633079777122745 -74.5, 50.00923107075451 -74.5, 115.275390625 -74.5 M115.275390625 -74.5 C115.275390625 -20.738233097601437, 115.275390625 33.023533804797125, 115.275390625 74.5 M115.275390625 -74.5 C115.275390625 -15.790809457539396, 115.275390625 42.91838108492121, 115.275390625 74.5 M115.275390625 74.5 C31.344846845421515 74.5, -52.58569693415697 74.5, -115.275390625 74.5 M115.275390625 74.5 C59.496867824153455 74.5, 3.7183450233069095 74.5, -115.275390625 74.5 M-115.275390625 74.5 C-115.275390625 22.55512085144162, -115.275390625 -29.389758297116757, -115.275390625 -74.5 M-115.275390625 74.5 C-115.275390625 39.97168875166005, -115.275390625 5.443377503320093, -115.275390625 -74.5"></path></g><g transform="translate(0, -54.5)" class="annotation-group text"></g><g transform="translate(-33.79296875, -54.5)" class="label-group text"><g transform="translate(0,-9.25)" style="font-weight: bolder" class="label"><g><rect style="stroke: none" class="background"></rect><text style="" y="-10.1"><tspan font-weight="" dy="1.1em" y="-0.1em" x="0" class="text-outer-tspan"><tspan font-weight="" class="text-inner-tspan" font-style="normal">Database</tspan></tspan></text></g></g></g><g transform="translate(-103.275390625, -12)" class="members-group text"><g transform="translate(0,-9.25)" style="" class="label"><g><rect style="stroke: none" class="background"></rect><text style="" y="-10.1"><tspan dy="1.1em" y="-0.1em" x="0" class="text-outer-tspan"><tspan font-weight="normal" class="text-inner-tspan" font-style="normal">-String</tspan><tspan font-weight="normal" class="text-inner-tspan" font-style="normal"> connectionString</tspan></tspan></text></g></g></g><g transform="translate(-103.275390625, 30.5)" class="methods-group text"><g transform="translate(0,-9.25)" style="" class="label"><g><rect style="stroke: none" class="background"></rect><text style="" y="-10.1"><tspan dy="1.1em" y="-0.1em" x="0" class="text-outer-tspan"><tspan font-weight="normal" class="text-inner-tspan" font-style="normal">+connect()</tspan></tspan></text></g></g><g transform="translate(0,12.25)" style="" class="label"><g><rect style="stroke: none" class="background"></rect><text style="" y="-10.1"><tspan dy="1.1em" y="-0.1em" x="0" class="text-outer-tspan"><tspan font-weight="normal" class="text-inner-tspan" font-style="normal">+disconnect()</tspan></tspan></text></g></g></g><g style="" class="divider"><path style="" fill="none" stroke-width="1.3" stroke="#999" d="M-115.275390625 -32 C-28.143270818372145 -32, 58.98884898825571 -32, 115.275390625 -32 M-115.275390625 -32 C-47.862965943400155 -32, 19.54945873819969 -32, 115.275390625 -32"></path></g><g style="" class="divider"><path style="" fill="none" stroke-width="1.3" stroke="#999" d="M-115.275390625 10.5 C-34.71461946238374 10.5, 45.846151700232525 10.5, 115.275390625 10.5 M-115.275390625 10.5 C-25.793040471775555 10.5, 63.68930968144889 10.5, 115.275390625 10.5"></path></g></g></g></g></g></svg>