<svg aria-roledescription="class" role="graphics-document document" viewBox="0 0 1055.2578125 907" style="max-width: 1055.2578125px;" class="classDiagram" xmlns="http://www.w3.org/2000/svg" width="100%" id="mermaidSvgId"><style>#mermaidSvgId{font-family:"trebuchet ms",verdana,arial,sans-serif;font-size:16px;fill:#000000;}#mermaidSvgId .error-icon{fill:#552222;}#mermaidSvgId .error-text{fill:#552222;stroke:#552222;}#mermaidSvgId .edge-thickness-normal{stroke-width:1px;}#mermaidSvgId .edge-thickness-thick{stroke-width:3.5px;}#mermaidSvgId .edge-pattern-solid{stroke-dasharray:0;}#mermaidSvgId .edge-thickness-invisible{stroke-width:0;fill:none;}#mermaidSvgId .edge-pattern-dashed{stroke-dasharray:3;}#mermaidSvgId .edge-pattern-dotted{stroke-dasharray:2;}#mermaidSvgId .marker{fill:#666;stroke:#666;}#mermaidSvgId .marker.cross{stroke:#666;}#mermaidSvgId svg{font-family:"trebuchet ms",verdana,arial,sans-serif;font-size:16px;}#mermaidSvgId p{margin:0;}#mermaidSvgId g.classGroup text{fill:#999;stroke:none;font-family:"trebuchet ms",verdana,arial,sans-serif;font-size:10px;}#mermaidSvgId g.classGroup text .title{font-weight:bolder;}#mermaidSvgId .nodeLabel,#mermaidSvgId .edgeLabel{color:#111111;}#mermaidSvgId .edgeLabel .label rect{fill:#eee;}#mermaidSvgId .label text{fill:#111111;}#mermaidSvgId .labelBkg{background:#eee;}#mermaidSvgId .edgeLabel .label span{background:#eee;}#mermaidSvgId .classTitle{font-weight:bolder;}#mermaidSvgId .node rect,#mermaidSvgId .node circle,#mermaidSvgId .node ellipse,#mermaidSvgId .node polygon,#mermaidSvgId .node path{fill:#eee;stroke:#999;stroke-width:1px;}#mermaidSvgId .divider{stroke:#999;stroke-width:1;}#mermaidSvgId g.clickable{cursor:pointer;}#mermaidSvgId g.classGroup rect{fill:#eee;stroke:#999;}#mermaidSvgId g.classGroup line{stroke:#999;stroke-width:1;}#mermaidSvgId .classLabel .box{stroke:none;stroke-width:0;fill:#eee;opacity:0.5;}#mermaidSvgId .classLabel .label{fill:#999;font-size:10px;}#mermaidSvgId .relation{stroke:#666;stroke-width:1;fill:none;}#mermaidSvgId .dashed-line{stroke-dasharray:3;}#mermaidSvgId .dotted-line{stroke-dasharray:1 2;}#mermaidSvgId #compositionStart,#mermaidSvgId .composition{fill:#666!important;stroke:#666!important;stroke-width:1;}#mermaidSvgId #compositionEnd,#mermaidSvgId .composition{fill:#666!important;stroke:#666!important;stroke-width:1;}#mermaidSvgId #dependencyStart,#mermaidSvgId .dependency{fill:#666!important;stroke:#666!important;stroke-width:1;}#mermaidSvgId #dependencyStart,#mermaidSvgId .dependency{fill:#666!important;stroke:#666!important;stroke-width:1;}#mermaidSvgId #extensionStart,#mermaidSvgId .extension{fill:transparent!important;stroke:#666!important;stroke-width:1;}#mermaidSvgId #extensionEnd,#mermaidSvgId .extension{fill:transparent!important;stroke:#666!important;stroke-width:1;}#mermaidSvgId #aggregationStart,#mermaidSvgId .aggregation{fill:transparent!important;stroke:#666!important;stroke-width:1;}#mermaidSvgId #aggregationEnd,#mermaidSvgId .aggregation{fill:transparent!important;stroke:#666!important;stroke-width:1;}#mermaidSvgId #lollipopStart,#mermaidSvgId .lollipop{fill:#eee!important;stroke:#666!important;stroke-width:1;}#mermaidSvgId #lollipopEnd,#mermaidSvgId .lollipop{fill:#eee!important;stroke:#666!important;stroke-width:1;}#mermaidSvgId .edgeTerminals{font-size:11px;line-height:initial;}#mermaidSvgId .classTitleText{text-anchor:middle;font-size:18px;fill:#000000;}#mermaidSvgId :root{--mermaid-font-family:"trebuchet ms",verdana,arial,sans-serif;}</style><g><defs><marker orient="auto" markerHeight="240" markerWidth="190" refY="7" refX="18" class="marker aggregation class" id="mermaidSvgId_class-aggregationStart"><path d="M 18,7 L9,13 L1,7 L9,1 Z"></path></marker></defs><defs><marker orient="auto" markerHeight="28" markerWidth="20" refY="7" refX="1" class="marker aggregation class" id="mermaidSvgId_class-aggregationEnd"><path d="M 18,7 L9,13 L1,7 L9,1 Z"></path></marker></defs><defs><marker orient="auto" markerHeight="240" markerWidth="190" refY="7" refX="18" class="marker extension class" id="mermaidSvgId_class-extensionStart"><path d="M 1,7 L18,13 V 1 Z"></path></marker></defs><defs><marker orient="auto" markerHeight="28" markerWidth="20" refY="7" refX="1" class="marker extension class" id="mermaidSvgId_class-extensionEnd"><path d="M 1,1 V 13 L18,7 Z"></path></marker></defs><defs><marker orient="auto" markerHeight="240" markerWidth="190" refY="7" refX="18" class="marker composition class" id="mermaidSvgId_class-compositionStart"><path d="M 18,7 L9,13 L1,7 L9,1 Z"></path></marker></defs><defs><marker orient="auto" markerHeight="28" markerWidth="20" refY="7" refX="1" class="marker composition class" id="mermaidSvgId_class-compositionEnd"><path d="M 18,7 L9,13 L1,7 L9,1 Z"></path></marker></defs><defs><marker orient="auto" markerHeight="240" markerWidth="190" refY="7" refX="6" class="marker dependency class" id="mermaidSvgId_class-dependencyStart"><path d="M 5,7 L9,13 L1,7 L9,1 Z"></path></marker></defs><defs><marker orient="auto" markerHeight="28" markerWidth="20" refY="7" refX="13" class="marker dependency class" id="mermaidSvgId_class-dependencyEnd"><path d="M 18,7 L9,13 L14,7 L9,1 Z"></path></marker></defs><defs><marker orient="auto" markerHeight="240" markerWidth="190" refY="7" refX="13" class="marker lollipop class" id="mermaidSvgId_class-lollipopStart"><circle r="6" cy="7" cx="7" fill="transparent" stroke="black"></circle></marker></defs><defs><marker orient="auto" markerHeight="240" markerWidth="190" refY="7" refX="1" class="marker lollipop class" id="mermaidSvgId_class-lollipopEnd"><circle r="6" cy="7" cx="7" fill="transparent" stroke="black"></circle></marker></defs><g class="root"><g class="clusters"></g><g class="edgePaths"><path marker-start="url(#mermaidSvgId_class-extensionStart)" style=";" class="edge-thickness-normal edge-pattern-solid relation" id="id_Task_Bug_1" d="M277.682,703.698L273.451,707.248C269.22,710.798,260.757,717.899,256.526,725.616C252.295,733.333,252.295,741.667,252.295,745.833L252.295,750"></path><path marker-start="url(#mermaidSvgId_class-extensionStart)" style=";" class="edge-thickness-normal edge-pattern-solid relation" id="id_Task_Feature_2" d="M771.537,703.698L775.768,707.248C779.999,710.798,788.461,717.899,792.693,725.616C796.924,733.333,796.924,741.667,796.924,745.833L796.924,750"></path><path marker-start="url(#mermaidSvgId_class-aggregationStart)" style=";" class="edge-thickness-normal edge-pattern-solid relation" id="id_TaskManager_Task_3" d="M543.607,253.784L540.441,256.153C537.275,258.523,530.942,263.261,527.776,269.797C524.609,276.333,524.609,284.667,524.609,288.833L524.609,293"></path><path marker-end="url(#mermaidSvgId_class-dependencyEnd)" style=";" class="edge-thickness-normal edge-pattern-solid relation" id="id_TaskManager_Database_4" d="M872.071,243L877.639,247.167C883.207,251.333,894.344,259.667,899.912,283.125C905.48,306.583,905.48,345.167,905.48,364.458L905.48,383.75"></path></g><g class="edgeLabels"><g><rect style="stroke: none" class="background"></rect></g><g><rect style="stroke: none" class="background"></rect></g><g><rect style="stroke: none" class="background"></rect></g><g><rect style="stroke: none" class="background"></rect></g><g class="edgeLabel"><g transform="translate(0, 0)" class="label"><text y="-10.1"><tspan dy="1.1em" y="-0.1em" x="0" class="text-outer-tspan"></tspan></text></g></g><g class="edgeLabel"><g transform="translate(0, 0)" class="label"><text y="-10.1"><tspan dy="1.1em" y="-0.1em" x="0" class="text-outer-tspan"></tspan></text></g></g><g class="edgeLabel"><g transform="translate(0, 0)" class="label"><text y="-10.1"><tspan dy="1.1em" y="-0.1em" x="0" class="text-outer-tspan"></tspan></text></g></g><g class="edgeLabel"><g transform="translate(0, 0)" class="label"><text y="-10.1"><tspan dy="1.1em" y="-0.1em" x="0" class="text-outer-tspan"></tspan></text></g></g></g><g class="nodes"><g transform="translate(524.609375, 496.5)" id="classId-Task-266" class="node default"><g class="basic label-container"><path style="" fill="#eee" stroke-width="0" stroke="none" d="M-233.138671875 -203.5 L233.138671875 -203.5 L233.138671875 203.5 L-233.138671875 203.5"></path><path style="" fill="none" stroke-width="1.3" stroke="#999" d="M-233.138671875 -203.5 C-63.16606729659236 -203.5, 106.80653728181528 -203.5, 233.138671875 -203.5 M-233.138671875 -203.5 C-75.69654671793845 -203.5, 81.74557843912311 -203.5, 233.138671875 -203.5 M233.138671875 -203.5 C233.138671875 -111.2628531470243, 233.138671875 -19.025706294048604, 233.138671875 203.5 M233.138671875 -203.5 C233.138671875 -114.11920728410546, 233.138671875 -24.738414568210914, 233.138671875 203.5 M233.138671875 203.5 C57.63834009606717 203.5, -117.86199168286566 203.5, -233.138671875 203.5 M233.138671875 203.5 C59.096397250355636 203.5, -114.94587737428873 203.5, -233.138671875 203.5 M-233.138671875 203.5 C-233.138671875 117.31727539404476, -233.138671875 31.134550788089513, -233.138671875 -203.5 M-233.138671875 203.5 C-233.138671875 77.6396451575857, -233.138671875 -48.22070968482859, -233.138671875 -203.5"></path></g><g transform="translate(0, -183.5)" class="annotation-group text"></g><g transform="translate(-16.09765625, -183.5)" class="label-group text"><g transform="translate(0,-9.25)" style="font-weight: bolder" class="label"><g><rect style="stroke: none" class="background"></rect><text style="" y="-10.1"><tspan font-weight="" dy="1.1em" y="-0.1em" x="0" class="text-outer-tspan"><tspan font-weight="" class="text-inner-tspan" font-style="normal">Task</tspan></tspan></text></g></g></g><g transform="translate(-221.138671875, -141)" class="members-group text"><g transform="translate(0,-9.25)" style="" class="label"><g><rect style="stroke: none" class="background"></rect><text style="" y="-10.1"><tspan dy="1.1em" y="-0.1em" x="0" class="text-outer-tspan"># id: int</tspan></text></g></g><g transform="translate(0,12.25)" style="" class="label"><g><rect style="stroke: none" class="background"></rect><text style="" y="-10.1"><tspan dy="1.1em" y="-0.1em" x="0" class="text-outer-tspan"># title: string</tspan></text></g></g><g transform="translate(0,33.75)" style="" class="label"><g><rect style="stroke: none" class="background"></rect><text style="" y="-10.1"><tspan dy="1.1em" y="-0.1em" x="0" class="text-outer-tspan"># description: string</tspan></text></g></g><g transform="translate(0,55.25)" style="" class="label"><g><rect style="stroke: none" class="background"></rect><text style="" y="-10.1"><tspan dy="1.1em" y="-0.1em" x="0" class="text-outer-tspan"># type: string</tspan></text></g></g><g transform="translate(0,76.75)" style="" class="label"><g><rect style="stroke: none" class="background"></rect><text style="" y="-10.1"><tspan dy="1.1em" y="-0.1em" x="0" class="text-outer-tspan"># status: string</tspan></text></g></g><g transform="translate(0,98.25)" style="" class="label"><g><rect style="stroke: none" class="background"></rect><text style="" y="-10.1"><tspan dy="1.1em" y="-0.1em" x="0" class="text-outer-tspan"># assignee: string|null</tspan></text></g></g></g><g transform="translate(-221.138671875, 9)" class="methods-group text"><g transform="translate(0,-9.25)" style="" class="label"><g><rect style="stroke: none" class="background"></rect><text style="" y="-10.1"><tspan dy="1.1em" y="-0.1em" x="0" class="text-outer-tspan">+ __construct(title: string, description: string, type: string)</tspan></text></g></g><g transform="translate(0,12.25)" style="" class="label"><g><rect style="stroke: none" class="background"></rect><text style="" y="-10.1"><tspan dy="1.1em" y="-0.1em" x="0" class="text-outer-tspan">+ getId() : : int</tspan></text></g></g><g transform="translate(0,33.75)" style="" class="label"><g><rect style="stroke: none" class="background"></rect><text style="" y="-10.1"><tspan dy="1.1em" y="-0.1em" x="0" class="text-outer-tspan">+ getTitle() : : string</tspan></text></g></g><g transform="translate(0,55.25)" style="" class="label"><g><rect style="stroke: none" class="background"></rect><text style="" y="-10.1"><tspan dy="1.1em" y="-0.1em" x="0" class="text-outer-tspan">+ getDescription() : : string</tspan></text></g></g><g transform="translate(0,76.75)" style="" class="label"><g><rect style="stroke: none" class="background"></rect><text style="" y="-10.1"><tspan dy="1.1em" y="-0.1em" x="0" class="text-outer-tspan">+ getType() : : string</tspan></text></g></g><g transform="translate(0,98.25)" style="" class="label"><g><rect style="stroke: none" class="background"></rect><text style="" y="-10.1"><tspan dy="1.1em" y="-0.1em" x="0" class="text-outer-tspan">+ getStatus() : : string</tspan></text></g></g><g transform="translate(0,119.75)" style="" class="label"><g><rect style="stroke: none" class="background"></rect><text style="" y="-10.1"><tspan dy="1.1em" y="-0.1em" x="0" class="text-outer-tspan">+ getAssignee() : : string|null</tspan></text></g></g><g transform="translate(0,141.25)" style="" class="label"><g><rect style="stroke: none" class="background"></rect><text style="" y="-10.1"><tspan dy="1.1em" y="-0.1em" x="0" class="text-outer-tspan">+ setStatus(status: string) : : void</tspan></text></g></g><g transform="translate(0,162.75)" style="" class="label"><g><rect style="stroke: none" class="background"></rect><text style="" y="-10.1"><tspan dy="1.1em" y="-0.1em" x="0" class="text-outer-tspan">+ setAssignee(assignee: string) : : void</tspan></text></g></g></g><g style="" class="divider"><path style="" fill="none" stroke-width="1.3" stroke="#999" d="M-233.138671875 -161 C-50.72816835101898 -161, 131.68233517296204 -161, 233.138671875 -161 M-233.138671875 -161 C-54.08741368770882 -161, 124.96384449958236 -161, 233.138671875 -161"></path></g><g style="" class="divider"><path style="" fill="none" stroke-width="1.3" stroke="#999" d="M-233.138671875 -11 C-113.69856339304641 -11, 5.7415450889071735 -11, 233.138671875 -11 M-233.138671875 -11 C-82.24578925064876 -11, 68.64709337370249 -11, 233.138671875 -11"></path></g></g><g transform="translate(252.294921875, 824.5)" id="classId-Bug-267" class="node default"><g class="basic label-container"><path style="" fill="#eee" stroke-width="0" stroke="none" d="M-244.294921875 -74.5 L244.294921875 -74.5 L244.294921875 74.5 L-244.294921875 74.5"></path><path style="" fill="none" stroke-width="1.3" stroke="#999" d="M-244.294921875 -74.5 C-130.56357290726848 -74.5, -16.83222393953696 -74.5, 244.294921875 -74.5 M-244.294921875 -74.5 C-103.60020828710168 -74.5, 37.09450530079664 -74.5, 244.294921875 -74.5 M244.294921875 -74.5 C244.294921875 -31.77116306155841, 244.294921875 10.957673876883177, 244.294921875 74.5 M244.294921875 -74.5 C244.294921875 -22.372518682406827, 244.294921875 29.754962635186345, 244.294921875 74.5 M244.294921875 74.5 C144.21085430504806 74.5, 44.12678673509612 74.5, -244.294921875 74.5 M244.294921875 74.5 C118.16154422514992 74.5, -7.971833424700151 74.5, -244.294921875 74.5 M-244.294921875 74.5 C-244.294921875 17.804935738160268, -244.294921875 -38.890128523679465, -244.294921875 -74.5 M-244.294921875 74.5 C-244.294921875 27.240616215389487, -244.294921875 -20.018767569221026, -244.294921875 -74.5"></path></g><g transform="translate(0, -54.5)" class="annotation-group text"></g><g transform="translate(-13.50390625, -54.5)" class="label-group text"><g transform="translate(0,-9.25)" style="font-weight: bolder" class="label"><g><rect style="stroke: none" class="background"></rect><text style="" y="-10.1"><tspan font-weight="" dy="1.1em" y="-0.1em" x="0" class="text-outer-tspan"><tspan font-weight="" class="text-inner-tspan" font-style="normal">Bug</tspan></tspan></text></g></g></g><g transform="translate(-232.294921875, -12)" class="members-group text"><g transform="translate(0,-9.25)" style="" class="label"><g><rect style="stroke: none" class="background"></rect><text style="" y="-10.1"><tspan dy="1.1em" y="-0.1em" x="0" class="text-outer-tspan">- severity: string</tspan></text></g></g></g><g transform="translate(-232.294921875, 30.5)" class="methods-group text"><g transform="translate(0,-9.25)" style="" class="label"><g><rect style="stroke: none" class="background"></rect><text style="" y="-10.1"><tspan dy="1.1em" y="-0.1em" x="0" class="text-outer-tspan">+ __construct(title: string, description: string, severity: string)</tspan></text></g></g><g transform="translate(0,12.25)" style="" class="label"><g><rect style="stroke: none" class="background"></rect><text style="" y="-10.1"><tspan dy="1.1em" y="-0.1em" x="0" class="text-outer-tspan">+ getSeverity() : : string</tspan></text></g></g></g><g style="" class="divider"><path style="" fill="none" stroke-width="1.3" stroke="#999" d="M-244.294921875 -32 C-92.33391543165203 -32, 59.62709101169594 -32, 244.294921875 -32 M-244.294921875 -32 C-67.27532257870521 -32, 109.74427671758957 -32, 244.294921875 -32"></path></g><g style="" class="divider"><path style="" fill="none" stroke-width="1.3" stroke="#999" d="M-244.294921875 10.5 C-128.60506583741105 10.5, -12.915209799822094 10.5, 244.294921875 10.5 M-244.294921875 10.5 C-77.87070059050552 10.5, 88.55352069398896 10.5, 244.294921875 10.5"></path></g></g><g transform="translate(796.923828125, 824.5)" id="classId-Feature-268" class="node default"><g class="basic label-container"><path style="" fill="#eee" stroke-width="0" stroke="none" d="M-250.333984375 -74.5 L250.333984375 -74.5 L250.333984375 74.5 L-250.333984375 74.5"></path><path style="" fill="none" stroke-width="1.3" stroke="#999" d="M-250.333984375 -74.5 C-137.05620706881342 -74.5, -23.778429762626843 -74.5, 250.333984375 -74.5 M-250.333984375 -74.5 C-123.63101078494157 -74.5, 3.0719628051168684 -74.5, 250.333984375 -74.5 M250.333984375 -74.5 C250.333984375 -44.52450982769005, 250.333984375 -14.549019655380114, 250.333984375 74.5 M250.333984375 -74.5 C250.333984375 -24.567212481666544, 250.333984375 25.36557503666691, 250.333984375 74.5 M250.333984375 74.5 C136.16444281195868 74.5, 21.99490124891736 74.5, -250.333984375 74.5 M250.333984375 74.5 C120.59189147339649 74.5, -9.150201428207026 74.5, -250.333984375 74.5 M-250.333984375 74.5 C-250.333984375 16.314762047693584, -250.333984375 -41.87047590461283, -250.333984375 -74.5 M-250.333984375 74.5 C-250.333984375 25.868427437030924, -250.333984375 -22.763145125938152, -250.333984375 -74.5"></path></g><g transform="translate(0, -54.5)" class="annotation-group text"></g><g transform="translate(-29.06640625, -54.5)" class="label-group text"><g transform="translate(0,-9.25)" style="font-weight: bolder" class="label"><g><rect style="stroke: none" class="background"></rect><text style="" y="-10.1"><tspan font-weight="" dy="1.1em" y="-0.1em" x="0" class="text-outer-tspan"><tspan font-weight="" class="text-inner-tspan" font-style="normal">Feature</tspan></tspan></text></g></g></g><g transform="translate(-238.333984375, -12)" class="members-group text"><g transform="translate(0,-9.25)" style="" class="label"><g><rect style="stroke: none" class="background"></rect><text style="" y="-10.1"><tspan dy="1.1em" y="-0.1em" x="0" class="text-outer-tspan">- priority: string</tspan></text></g></g></g><g transform="translate(-238.333984375, 30.5)" class="methods-group text"><g transform="translate(0,-9.25)" style="" class="label"><g><rect style="stroke: none" class="background"></rect><text style="" y="-10.1"><tspan dy="1.1em" y="-0.1em" x="0" class="text-outer-tspan">+ __construct(title: string, description: string, priority: string)</tspan></text></g></g><g transform="translate(0,12.25)" style="" class="label"><g><rect style="stroke: none" class="background"></rect><text style="" y="-10.1"><tspan dy="1.1em" y="-0.1em" x="0" class="text-outer-tspan">+ getPriority() : : string</tspan></text></g></g></g><g style="" class="divider"><path style="" fill="none" stroke-width="1.3" stroke="#999" d="M-250.333984375 -32 C-75.32285146039862 -32, 99.68828145420275 -32, 250.333984375 -32 M-250.333984375 -32 C-135.437317444769 -32, -20.540650514538015 -32, 250.333984375 -32"></path></g><g style="" class="divider"><path style="" fill="none" stroke-width="1.3" stroke="#999" d="M-250.333984375 10.5 C-84.9481615159242 10.5, 80.4376613431516 10.5, 250.333984375 10.5 M-250.333984375 10.5 C-117.83093464672663 10.5, 14.672115081546735 10.5, 250.333984375 10.5"></path></g></g><g transform="translate(715.044921875, 125.5)" id="classId-TaskManager-269" class="node default"><g class="basic label-container"><path style="" fill="#eee" stroke-width="0" stroke="none" d="M-273.1015625 -117.5 L273.1015625 -117.5 L273.1015625 117.5 L-273.1015625 117.5"></path><path style="" fill="none" stroke-width="1.3" stroke="#999" d="M-273.1015625 -117.5 C-113.13326406372747 -117.5, 46.83503437254507 -117.5, 273.1015625 -117.5 M-273.1015625 -117.5 C-124.42477966228785 -117.5, 24.252003175424306 -117.5, 273.1015625 -117.5 M273.1015625 -117.5 C273.1015625 -62.968147527717925, 273.1015625 -8.43629505543585, 273.1015625 117.5 M273.1015625 -117.5 C273.1015625 -65.70332596155396, 273.1015625 -13.90665192310793, 273.1015625 117.5 M273.1015625 117.5 C162.11189877789553 117.5, 51.122235055791066 117.5, -273.1015625 117.5 M273.1015625 117.5 C114.08127090756048 117.5, -44.93902068487904 117.5, -273.1015625 117.5 M-273.1015625 117.5 C-273.1015625 33.584739580003244, -273.1015625 -50.33052083999351, -273.1015625 -117.5 M-273.1015625 117.5 C-273.1015625 30.12790125376314, -273.1015625 -57.24419749247372, -273.1015625 -117.5"></path></g><g transform="translate(0, -97.5)" class="annotation-group text"></g><g transform="translate(-47.3359375, -97.5)" class="label-group text"><g transform="translate(0,-9.25)" style="font-weight: bolder" class="label"><g><rect style="stroke: none" class="background"></rect><text style="" y="-10.1"><tspan font-weight="" dy="1.1em" y="-0.1em" x="0" class="text-outer-tspan"><tspan font-weight="" class="text-inner-tspan" font-style="normal">TaskManager</tspan></tspan></text></g></g></g><g transform="translate(-261.1015625, -55)" class="members-group text"><g transform="translate(0,-9.25)" style="" class="label"><g><rect style="stroke: none" class="background"></rect><text style="" y="-10.1"><tspan dy="1.1em" y="-0.1em" x="0" class="text-outer-tspan">- tasks: array</tspan></text></g></g><g transform="translate(0,12.25)" style="" class="label"><g><rect style="stroke: none" class="background"></rect><text style="" y="-10.1"><tspan dy="1.1em" y="-0.1em" x="0" class="text-outer-tspan">- pdo: PDO</tspan></text></g></g></g><g transform="translate(-261.1015625, 9)" class="methods-group text"><g transform="translate(0,-9.25)" style="" class="label"><g><rect style="stroke: none" class="background"></rect><text style="" y="-10.1"><tspan dy="1.1em" y="-0.1em" x="0" class="text-outer-tspan">+ __construct(pdo: PDO)</tspan></text></g></g><g transform="translate(0,12.25)" style="" class="label"><g><rect style="stroke: none" class="background"></rect><text style="" y="-10.1"><tspan dy="1.1em" y="-0.1em" x="0" class="text-outer-tspan">- loadTasksFromDatabase() : : void</tspan></text></g></g><g transform="translate(0,33.75)" style="" class="label"><g><rect style="stroke: none" class="background"></rect><text style="" y="-10.1"><tspan dy="1.1em" y="-0.1em" x="0" class="text-outer-tspan">+ createTask(title: string, description: string, type: string) : : Task</tspan></text></g></g><g transform="translate(0,55.25)" style="" class="label"><g><rect style="stroke: none" class="background"></rect><text style="" y="-10.1"><tspan dy="1.1em" y="-0.1em" x="0" class="text-outer-tspan">+ getAllTasks() : : array</tspan></text></g></g><g transform="translate(0,76.75)" style="" class="label"><g><rect style="stroke: none" class="background"></rect><text style="" y="-10.1"><tspan dy="1.1em" y="-0.1em" x="0" class="text-outer-tspan">+ getTasksByAssignee(assignee: string) : : array</tspan></text></g></g></g><g style="" class="divider"><path style="" fill="none" stroke-width="1.3" stroke="#999" d="M-273.1015625 -75 C-119.830667264011 -75, 33.440227971978004 -75, 273.1015625 -75 M-273.1015625 -75 C-65.60107711760082 -75, 141.89940826479835 -75, 273.1015625 -75"></path></g><g style="" class="divider"><path style="" fill="none" stroke-width="1.3" stroke="#999" d="M-273.1015625 -11 C-70.42883385249212 -11, 132.24389479501576 -11, 273.1015625 -11 M-273.1015625 -11 C-124.5870287654248 -11, 23.92750496915039 -11, 273.1015625 -11"></path></g></g><g transform="translate(905.48046875, 496.5)" id="classId-Database-270" class="node default"><g class="basic label-container"><path style="" fill="#eee" stroke-width="0" stroke="none" d="M-97.732421875 -106.75 L97.732421875 -106.75 L97.732421875 106.75 L-97.732421875 106.75"></path><path style="" fill="none" stroke-width="1.3" stroke="#999" d="M-97.732421875 -106.75 C-53.037208032973425 -106.75, -8.34199419094685 -106.75, 97.732421875 -106.75 M-97.732421875 -106.75 C-24.06497076792192 -106.75, 49.60248033915616 -106.75, 97.732421875 -106.75 M97.732421875 -106.75 C97.732421875 -40.00247151116339, 97.732421875 26.745056977673215, 97.732421875 106.75 M97.732421875 -106.75 C97.732421875 -31.749374434089844, 97.732421875 43.25125113182031, 97.732421875 106.75 M97.732421875 106.75 C52.04835937019493 106.75, 6.364296865389861 106.75, -97.732421875 106.75 M97.732421875 106.75 C24.01172690244698 106.75, -49.70896807010604 106.75, -97.732421875 106.75 M-97.732421875 106.75 C-97.732421875 59.67408320064611, -97.732421875 12.598166401292218, -97.732421875 -106.75 M-97.732421875 106.75 C-97.732421875 63.310710274621506, -97.732421875 19.871420549243012, -97.732421875 -106.75"></path></g><g transform="translate(0, -86.75)" class="annotation-group text"></g><g transform="translate(-33.79296875, -86.75)" class="label-group text"><g transform="translate(0,-9.25)" style="font-weight: bolder" class="label"><g><rect style="stroke: none" class="background"></rect><text style="" y="-10.1"><tspan font-weight="" dy="1.1em" y="-0.1em" x="0" class="text-outer-tspan"><tspan font-weight="" class="text-inner-tspan" font-style="normal">Database</tspan></tspan></text></g></g></g><g transform="translate(-85.732421875, -44.25)" class="members-group text"><g transform="translate(0,-9.25)" style="" class="label"><g><rect style="stroke: none" class="background"></rect><text style="" y="-10.1"><tspan dy="1.1em" y="-0.1em" x="0" class="text-outer-tspan">- dbname: string</tspan></text></g></g><g transform="translate(0,12.25)" style="" class="label"><g><rect style="stroke: none" class="background"></rect><text style="" y="-10.1"><tspan dy="1.1em" y="-0.1em" x="0" class="text-outer-tspan">- user: string</tspan></text></g></g><g transform="translate(0,33.75)" style="" class="label"><g><rect style="stroke: none" class="background"></rect><text style="" y="-10.1"><tspan dy="1.1em" y="-0.1em" x="0" class="text-outer-tspan">- password: string</tspan></text></g></g><g transform="translate(0,55.25)" style="" class="label"><g><rect style="stroke: none" class="background"></rect><text style="" y="-10.1"><tspan dy="1.1em" y="-0.1em" x="0" class="text-outer-tspan">- host: string</tspan></text></g></g><g transform="translate(0,76.75)" style="" class="label"><g><rect style="stroke: none" class="background"></rect><text style="" y="-10.1"><tspan dy="1.1em" y="-0.1em" x="0" class="text-outer-tspan">- port: string</tspan></text></g></g></g><g transform="translate(-85.732421875, 84.25)" class="methods-group text"><g transform="translate(0,-9.25)" style="" class="label"><g><rect style="stroke: none" class="background"></rect><text style="" y="-10.1"><tspan dy="1.1em" y="-0.1em" x="0" class="text-outer-tspan">+ connect() : : PDO</tspan></text></g></g></g><g style="" class="divider"><path style="" fill="none" stroke-width="1.3" stroke="#999" d="M-97.732421875 -64.25 C-38.298071961048336 -64.25, 21.136277952903328 -64.25, 97.732421875 -64.25 M-97.732421875 -64.25 C-23.349531051404043 -64.25, 51.033359772191915 -64.25, 97.732421875 -64.25"></path></g><g style="" class="divider"><path style="" fill="none" stroke-width="1.3" stroke="#999" d="M-97.732421875 64.25 C-22.465701757955117 64.25, 52.80101835908977 64.25, 97.732421875 64.25 M-97.732421875 64.25 C-56.47864823975703 64.25, -15.224874604514056 64.25, 97.732421875 64.25"></path></g></g></g></g></g></svg>